<svg xmlns="http://www.w3.org/2000/svg" xmlns:xlink="http://www.w3.org/1999/xlink" width="103.805" height="71.563" viewBox="0 0 103.805 71.563">
  <defs>
    <clipPath id="clip-path">
      <rect id="Rectangle_14" data-name="Rectangle 14" width="103.805" height="71.563" fill="#e88fbc" stroke="#e88fbc" stroke-width="1"/>
    </clipPath>
  </defs>
  <g id="kruisje-strretje-pink" transform="translate(0)">
    <g id="Group_17" data-name="Group 17" transform="translate(0 0)" clip-path="url(#clip-path)">
      <path id="Path_78" data-name="Path 78" d="M16.558,2.884a61.3,61.3,0,0,0-.133,8.669,2.882,2.882,0,1,0,5.763,0,61.3,61.3,0,0,1,.133-8.669A2.894,2.894,0,0,0,21.477.846a2.883,2.883,0,0,0-4.076,0,3.237,3.237,0,0,0-.844,2.038" transform="translate(2.492 0)" fill="#e88fbc" stroke="#e88fbc" stroke-width="1"/>
      <path id="Path_79" data-name="Path 79" d="M29.838,25.645q6.886.054,13.757-.47a2.881,2.881,0,1,0,0-5.763q-6.864.524-13.757.47a2.882,2.882,0,0,0,0,5.763" transform="translate(4.113 2.961)" fill="#e88fbc" stroke="#e88fbc" stroke-width="1"/>
      <path id="Path_80" data-name="Path 80" d="M20.133,38.381v8.65a2.882,2.882,0,0,0,5.763,0v-8.65a2.882,2.882,0,0,0-5.763,0" transform="translate(3.072 5.416)" fill="#e88fbc" stroke="#e88fbc" stroke-width="1"/>
      <path id="Path_81" data-name="Path 81" d="M2.884,28.283l10.63-.46a2.882,2.882,0,0,0,0-5.763l-10.63.46a2.882,2.882,0,0,0,0,5.763" transform="translate(0 3.366)" fill="#e88fbc" stroke="#e88fbc" stroke-width="1"/>
      <path id="Path_82" data-name="Path 82" d="M68.718,11.509A14.838,14.838,0,0,1,54.6,28.153q.382,2.83.765,5.66c4.642-1.12,9.484.894,12.714,4.248,3.537,3.672,5.278,8.844,5.833,13.831l5.66-.766a13.161,13.161,0,0,1,1.713-11.884,15.37,15.37,0,0,1,10.18-5.98A2.853,2.853,0,0,0,93.534,30.1a2.917,2.917,0,0,0-2.83-2.5A18.476,18.476,0,0,1,75.053,15.281c-.995-3-5.693-2.6-5.66.766a171.052,171.052,0,0,0,1.476,20.8l4.918-2.038c-1.029-1.177-2.086-3.582-1.633-4.846l-.741,1.271.227-.228-1.271.741.406-.062H71.242a3.991,3.991,0,0,1,2.63,3.491l4.919-2.037a3.752,3.752,0,0,1-1.012-4.232l-4.817,1.271a2.34,2.34,0,0,1,.647,3.049h4.976c.12.24.076-.394-.081-.224.275-.3.488.032.728.319l2.038-4.918L61.423,26.465q.384,2.83.766,5.66A24.948,24.948,0,0,1,69.9,31.68,2.9,2.9,0,0,0,72.786,28.8,2.944,2.944,0,0,0,69.9,25.917a30.193,30.193,0,0,0-9.246.65,2.865,2.865,0,0,0-2.064,3.162,2.927,2.927,0,0,0,2.83,2.5l19.848,1.941c2.728.266,3.47-3.212,2.038-4.919a6.1,6.1,0,0,0-7.835-1.1,6.16,6.16,0,0,0-1.864,7.99c.976,1.955,3.957,1.8,4.976,0a8.134,8.134,0,0,0-1.547-10.032,2.923,2.923,0,0,0-4.817,1.271,9.443,9.443,0,0,0,2.494,9.839c1.706,1.593,5.093.576,4.919-2.038a10.3,10.3,0,0,0-2.5-6.238c-1.448-1.662-3.99-3.438-6.3-2.748-2.848.851-2.7,4.337-2.235,6.667a13.043,13.043,0,0,0,3.112,6.027c1.533,1.753,5.249.451,4.919-2.038a171.047,171.047,0,0,1-1.476-20.8l-5.659.766A24.46,24.46,0,0,0,90.7,33.365q-.384-2.828-.766-5.659c-11.4,1.913-19.772,13.58-15.917,24.953a2.9,2.9,0,0,0,3.162,2.064,2.844,2.844,0,0,0,2.5-2.83c-.743-6.68-2.947-13.392-7.834-18.223a19.453,19.453,0,0,0-18.008-5.414c-3.137.757-2.5,5.772.766,5.659,11.682-.4,21.106-10.617,19.877-22.408A2.965,2.965,0,0,0,71.6,8.627a2.9,2.9,0,0,0-2.882,2.881" transform="translate(7.903 1.316)" fill="#e88fbc" stroke="#e88fbc" stroke-width="1"/>
      <path id="Path_83" data-name="Path 83" d="M47,54.732a6.781,6.781,0,0,1,.716,1.282l-.29-.688a7.1,7.1,0,0,1,.448,1.654c-.033-.255-.068-.511-.1-.765a7.077,7.077,0,0,1,0,1.834c.033-.255.069-.511.1-.765a7.17,7.17,0,0,1-.288,1.191q1.77-1.008,3.544-2.014a2.606,2.606,0,0,1-.519-.145l.688.29a2.717,2.717,0,0,1-.535-.31c.194.15.39.3.582.451a3.2,3.2,0,0,1-.5-.5c.151.194.3.388.451.583a3.506,3.506,0,0,1-.408-.7q.145.346.292.689a3.435,3.435,0,0,1-.214-.784c.035.255.07.511.1.765a3.067,3.067,0,0,1,0-.712c-.035.256-.067.511-.1.766a2.634,2.634,0,0,1,.154-.6l-.292.688a2.536,2.536,0,0,1,.262-.47l-5.267-.689a14.161,14.161,0,0,1,.382,1.829c-.035-.255-.069-.511-.1-.765a13.721,13.721,0,0,1-.008,3.585c.033-.256.068-.511.1-.766-.029.19-.06.379-.093.568l4.816-1.271c-.085-.1-.167-.194-.248-.294l.451.583a5.972,5.972,0,0,1-.716-1.206l.289.688a5.914,5.914,0,0,1-.406-1.475c.033.256.069.511.1.766-.018-.169-.033-.339-.041-.509a3.015,3.015,0,0,0-.843-2.038,2.883,2.883,0,0,0-4.92,2.038,8.738,8.738,0,0,0,2.258,5.521,2.88,2.88,0,0,0,4.814-1.271,16.735,16.735,0,0,0-.279-7.514,2.894,2.894,0,0,0-2.4-2.064,2.945,2.945,0,0,0-2.871,1.376,5.868,5.868,0,0,0,1.028,7.152A5.206,5.206,0,0,0,49.6,62.018a3.062,3.062,0,0,0,2.222-.29,3.165,3.165,0,0,0,1.322-1.722,9.4,9.4,0,0,0-1.163-8.182A3.112,3.112,0,0,0,50.256,50.5a2.948,2.948,0,0,0-2.221.292,2.9,2.9,0,0,0-1.323,1.722A2.835,2.835,0,0,0,47,54.732" transform="translate(6.803 7.691)" fill="#e88fbc" stroke="#e88fbc" stroke-width="1"/>
    </g>
  </g>
</svg>
