<svg xmlns="http://www.w3.org/2000/svg" xmlns:xlink="http://www.w3.org/1999/xlink" width="82.152" height="43.348" viewBox="0 0 82.152 43.348">
  <defs>
    <clipPath id="clip-path">
      <rect id="Rectangle_33" data-name="Rectangle 33" width="81.433" height="41.933" fill="none"/>
    </clipPath>
  </defs>
  <g id="prev-button" transform="matrix(-1, 0.017, -0.017, -1, 82.152, 41.927)">
    <g id="Group_33" data-name="Group 33" transform="translate(0 0)" clip-path="url(#clip-path)">
      <path id="Path_117" data-name="Path 117" d="M5.823,26.066c21.307-.118,42.565.919,63.871.8,5.778-.031,8.472-8.4,3.041-11.236Q58.534,8.216,44.332.8c-6.943-3.625-12.449,6.031-6.087,10.413A101.97,101.97,0,0,0,73.8,26.7V15.072A205.474,205.474,0,0,0,42.508,30.6c-6.613,4.042-.562,14.474,6.084,10.413A187.218,187.218,0,0,1,77.006,26.7c2.508-1,4.428-2.949,4.428-5.814a6.1,6.1,0,0,0-4.428-5.814A92.807,92.807,0,0,1,44.332.8Q41.286,6,38.245,11.211q14.2,7.416,28.406,14.834,1.519-5.618,3.043-11.236c-21.307.118-42.565-.919-63.871-.8-7.756.043-7.773,12.1,0,12.058" transform="translate(0.001 -0.003)" fill="#080909"/>
    </g>
  </g>
</svg>
