<svg xmlns="http://www.w3.org/2000/svg" xmlns:xlink="http://www.w3.org/1999/xlink" width="122.478" height="101.45" viewBox="0 0 122.478 101.45">
  <defs>
    <clipPath id="clip-path">
      <rect id="Rectangle_15" data-name="Rectangle 15" width="122.478" height="101.45" fill="none"/>
    </clipPath>
  </defs>
  <g id="roze-smiley" clip-path="url(#clip-path)">
    <path id="Path_84" data-name="Path 84" d="M66.374,1.4c15.272,1.448,24.233,2.939,35.345,11.593,11.391,8.872,16.829,24.283,14.926,38.594s-10.6,27.284-22.3,35.742-26.176,12.611-40.6,13.217c-8.3.348-16.832-.481-24.373-3.973C17.736,91.181,10.279,83.761,5.577,67.714,3.6,60.962,2.242,54.082,3.315,47.231,5.087,35.908,12.654,26.349,20.986,18.48,33.259,6.89,50-2.708,66.374,1.4" transform="translate(1.265 0.186)" fill="#d979af"/>
    <path id="Path_85" data-name="Path 85" d="M39.408,22.345a1.669,1.669,0,0,1-.149-.255l.361.856a1.61,1.61,0,0,1-.074-.27c.043.318.086.634.127.951a1.605,1.605,0,0,1,.006-.371c-.043.318-.086.634-.127.951a1.924,1.924,0,0,1,.109-.366L39.3,24.7a2.326,2.326,0,0,1,.26-.422c-.186.242-.373.482-.559.724a2.444,2.444,0,0,1,.368-.352l-.724.559A2.446,2.446,0,0,1,38.995,25l-.856.361a1.963,1.963,0,0,1,.482-.133l-.95.127a1.914,1.914,0,0,1,.3,0l-.95-.129a2.162,2.162,0,0,1,.518.146l-.854-.362a2.571,2.571,0,0,1,.456.28l-.724-.559a3.045,3.045,0,0,1,.381.388c-.187-.242-.373-.482-.559-.724a3.408,3.408,0,0,1,.392.674l-.361-.854a3.719,3.719,0,0,1,.229.877c-.043-.316-.084-.634-.127-.95a3.85,3.85,0,0,1-.014.851c.043-.316.086-.634.127-.95a5.869,5.869,0,0,1-.4,1.385l.361-.854a12.741,12.741,0,0,1-1.456,2.507q.279-.363.559-.724a3.315,3.315,0,0,1-.5.505l.724-.559a2.236,2.236,0,0,1-.4.23l.854-.361a1.943,1.943,0,0,1-.411.1l.95-.127a1.838,1.838,0,0,1-.355,0l.95.127a1.709,1.709,0,0,1-.325-.09l.854.361a1.819,1.819,0,0,1-.366-.217l.724.559a2.558,2.558,0,0,1-.376-.391l.558.724a4.038,4.038,0,0,1-.442-.781l.361.856a6.512,6.512,0,0,1-.418-1.547l.129.95a10.8,10.8,0,0,1-.04-2.667c-.043.316-.086.634-.127.95a4.946,4.946,0,0,1,.28-1.1l-.361.856a3.377,3.377,0,0,1,.363-.647l-.559.724a3.309,3.309,0,0,1,.6-.6l-.724.559a3.081,3.081,0,0,1,.511-.3l-.854.361a2.539,2.539,0,0,1,.552-.157l-.95.127a2.3,2.3,0,0,1,.455-.006c-.318-.043-.634-.086-.951-.127a2.211,2.211,0,0,1,.441.112l-.854-.361a2.164,2.164,0,0,1,.448.263l-.724-.558a2.446,2.446,0,0,1,.29.293c-.186-.242-.372-.482-.559-.724a2.684,2.684,0,0,1,.323.545l-.361-.854a3.247,3.247,0,0,1,.2.733c-.043-.316-.086-.634-.127-.95a3.327,3.327,0,0,1,0,.764l.129-.951a4.1,4.1,0,0,1-.24.864L35.578,23a7.1,7.1,0,0,1-.928,1.524c.187-.242.373-.482.559-.724-.2.255-.406.5-.615.753l5.618.722a5.085,5.085,0,0,1-.6-1.05l.361.856a5.361,5.361,0,0,1-.31-1.169l.129.95a5.026,5.026,0,0,1,0-1.209l-.129-.95a2.678,2.678,0,0,0-.64-1.216,3.291,3.291,0,0,0-1.858-1.282,5.342,5.342,0,0,0-2.273.011,4.533,4.533,0,0,0-1.909,1.1,5.068,5.068,0,0,0-.815,1.07,4.1,4.1,0,0,0-.537,2.226,3.9,3.9,0,0,0,1.047,2.529,3.578,3.578,0,0,0,5.059,0,3.458,3.458,0,0,0,1.047-2.529.676.676,0,0,1-.007-.215c-.043.316-.086.634-.127.95a.812.812,0,0,1,.054-.206L38.342,26a.9.9,0,0,1,.107-.187c-.186.24-.373.482-.559.724a.979.979,0,0,1,.149-.159l-.724.558a1.407,1.407,0,0,1,.28-.163l-.854.361a.79.79,0,0,1,.207-.044l-.95.129h.107l-.951-.127.107.017q-1.313-1.723-2.625-3.449a7.742,7.742,0,0,0,1.4,5.233,3.593,3.593,0,0,0,1.283,1.283,2.658,2.658,0,0,0,1.331.425,3.388,3.388,0,0,0,3-.984,17.981,17.981,0,0,0,1.764-2.329A7.755,7.755,0,0,0,42.5,23.835,5.944,5.944,0,0,0,39.547,18.3a5.448,5.448,0,0,0-2.4-.647,4.749,4.749,0,0,0-1.74.233,6.135,6.135,0,0,0-2.848,1.874,6.946,6.946,0,0,0-1.544,3.18,13.622,13.622,0,0,0-.167,3.106,9.407,9.407,0,0,0,1.323,4.67,5.855,5.855,0,0,0,2.964,2.368,4.538,4.538,0,0,0,1.5.23,5.309,5.309,0,0,0,2.4-.625,6.544,6.544,0,0,0,2.4-2.392,15.244,15.244,0,0,0,1.087-1.91,9.768,9.768,0,0,0,1.013-3.68,6.89,6.89,0,0,0-.734-3.245,5.774,5.774,0,0,0-2.368-2.554,5.1,5.1,0,0,0-4.2-.444,5.6,5.6,0,0,0-3.115,2.624,5.123,5.123,0,0,0-.612,2.449,4.539,4.539,0,0,0,.721,2.421A3.851,3.851,0,0,0,35.369,27.6a3.656,3.656,0,0,0,2.755-.362A3.605,3.605,0,0,0,39.769,25.1a3.525,3.525,0,0,0-.361-2.755" transform="translate(13.275 7.599)" fill="#080909"/>
    <path id="Path_86" data-name="Path 86" d="M52.514,29.343c0-.04.01-.08.014-.12-.041.318-.084.634-.127.951a8.126,8.126,0,0,1,.537-1.973l-.361.854a8.4,8.4,0,0,1,1.029-1.768l-.559.724A8.107,8.107,0,0,1,54.4,26.643l-.724.559a3.268,3.268,0,0,1,.541-.351l-.854.361a1.084,1.084,0,0,1,.245-.079c-.318.041-.634.084-.951.127a1.264,1.264,0,0,1,.312,0l-.953-.127a.711.711,0,0,1,.166.046l-.854-.361a1.2,1.2,0,0,1,.22.126l-.724-.559a1.741,1.741,0,0,1,.187.183l-.559-.724a2.275,2.275,0,0,1,.286.5l-.361-.856a4.291,4.291,0,0,1,.246.97c-.043-.316-.086-.634-.127-.95a11.725,11.725,0,0,1,.12,2.883l.129-.951a4.887,4.887,0,0,1-.289,1.12l.361-.856a4.049,4.049,0,0,1-.505.86q.281-.361.559-.724a3.706,3.706,0,0,1-.539.541c.24-.187.482-.373.722-.559a3.094,3.094,0,0,1-.549.33l.854-.361a2.689,2.689,0,0,1-.617.175l.951-.129a2.218,2.218,0,0,1-.425.007l.95.129a2.415,2.415,0,0,1-.511-.132l.854.361a2.637,2.637,0,0,1-.462-.263l.724.559a2.5,2.5,0,0,1-.446-.448c.186.242.372.482.559.724a2.326,2.326,0,0,1-.206-.356l.361.854a1.887,1.887,0,0,1-.113-.385q.062.476.127.951a1.774,1.774,0,0,1-.006-.4c-.043.318-.084.634-.127.951.024-.14.069-.273.106-.411a4.141,4.141,0,0,0-.006-2.07,8.186,8.186,0,0,0-.655-1.547l.361.854a1.52,1.52,0,0,1-.076-.288c.043.318.084.634.127.951a.7.7,0,0,1,0-.189c-.043.318-.086.634-.127.951l.021-.087-.361.856c.013-.027.024-.053.037-.079-.186.242-.373.484-.559.724.019-.021.036-.044.054-.066l-.724.558c.026-.017.049-.034.073-.053l-.854.361.057-.02-.95.127h.054c-.318-.043-.634-.086-.951-.127l.05.017-.854-.361.044.033-.724-.559c.013.014.026.03.04.044L46.6,29.28a.478.478,0,0,1,.056.107l-.361-.856c0,.02.01.039.016.057l-.129-.95a.25.25,0,0,1,0,.1c.163-.6.328-1.2.488-1.806l-.016.04.558-.724-.029.027,1.578-.92-.043.011h1.9l-.057-.009a2.718,2.718,0,0,0-1.426-.064,2.658,2.658,0,0,0-1.329.425,3.576,3.576,0,0,0-1.283,4.893,3.427,3.427,0,0,0,2.137,1.644,5.043,5.043,0,0,0,1.959.009,3.62,3.62,0,0,0,1.621-.931,3.763,3.763,0,0,0,1.1-2.644A3.935,3.935,0,0,0,50.5,23.931a3.888,3.888,0,0,0-4.7,2.8,4.847,4.847,0,0,0,.029,2.238,7.015,7.015,0,0,0,.612,1.408l-.361-.854a1.391,1.391,0,0,1,.1.336c-.043-.318-.086-.634-.127-.951l0,.112c.043-.316.086-.634.127-.95a5.6,5.6,0,0,0-.1,2.711A5.651,5.651,0,0,0,51.372,35a6.578,6.578,0,0,0,6.095-4.857,9.127,9.127,0,0,0,.342-2.187,9.358,9.358,0,0,0-.043-1.444,10.621,10.621,0,0,0-.893-3.877A4.544,4.544,0,0,0,52.72,20.1a6.372,6.372,0,0,0-4.183,2.212,10.89,10.89,0,0,0-1.987,2.8,13.52,13.52,0,0,0-.811,2.037,13.8,13.8,0,0,0-.378,2.19,3.571,3.571,0,0,0,1.047,2.529,3.578,3.578,0,0,0,5.059,0q.279-.363.559-.724a3.558,3.558,0,0,0,.488-1.806" transform="translate(19.53 8.654)" fill="#080909"/>
    <path id="Path_87" data-name="Path 87" d="M16.831,39.905c2.439,11.1,11.959,19.082,22.454,22.374a55.535,55.535,0,0,0,18.551,2.156c5.614-.2,11.958-.642,16.73-3.941,5.883-4.065,7.116-10.756,7.813-17.411.2-1.924-1.787-3.577-3.577-3.577a3.659,3.659,0,0,0-3.577,3.577A25.079,25.079,0,0,1,73.5,51.089a9.068,9.068,0,0,1-5.534,4.75c-5.776,1.994-12.747,1.807-18.737,1.206C38.091,55.929,26.309,49.747,23.73,38c-.987-4.5-7.886-2.592-6.9,1.9" transform="translate(7.207 15.262)" fill="#080909"/>
    <path id="Path_88" data-name="Path 88" d="M25.09,14.108C16.3,22.333,7.98,31.652,3.288,42.88-1.11,53.4-1.26,65,3.833,75.3,8.49,84.721,17.079,92.24,26.655,96.393c10.68,4.631,23.021,5.7,34.536,4.728,12-1.011,24.091-4.374,34.194-11.081a63.6,63.6,0,0,0,22.43-25.633c4.844-10.39,6.371-21.846,2.385-32.792A46.248,46.248,0,0,0,97.712,6.307C86.925.823,74.415-.941,62.452.458,51.727,1.711,41.73,4.445,32.275,9.726q-1.689.944-3.351,1.937-1.026.609-2.046,1.233c-.511.31-2.05.893-.379.381Q28.761,15,31.026,16.726v-.011L29.98,19.243c.422-.456-.478.325-.242.166.309-.207.6-.442.907-.657,1-.705,2.032-1.376,3.075-2.019A34.357,34.357,0,0,1,41.286,13c4.374-1.383,2.505-8.292-1.9-6.9a43.27,43.27,0,0,0-10.026,4.929c-2.252,1.432-5.107,2.824-5.487,5.7-.3,2.316,2.528,4.06,4.528,3.449,2.147-.657,4.145-2.362,6.08-3.477,2.12-1.22,4.273-2.386,6.485-3.432A57.184,57.184,0,0,1,53.016,9.244c10.5-2.341,21.4-3.017,31.884-.222,9.96,2.655,19.018,8.389,24.669,17.141a33.939,33.939,0,0,1,4.538,27.878c-2.728,9.786-8.774,18.451-16.308,25.167-7.93,7.07-17.719,11.38-28.065,13.518-19.24,3.976-42.89,1.561-55.852-14.847a30.625,30.625,0,0,1-6.055-25.9c2.388-10.488,9.161-19.417,16.463-27.048,1.894-1.981,3.857-3.894,5.859-5.766,3.368-3.153-1.7-8.2-5.059-5.059" transform="translate(0 0)" fill="#080909"/>
  </g>
</svg>
