<svg xmlns="http://www.w3.org/2000/svg" xmlns:xlink="http://www.w3.org/1999/xlink" width="148.073" height="208.856" viewBox="0 0 148.073 208.856">
  <defs>
    <clipPath id="clip-path">
      <rect id="scribble-line" width="134.451" height="199.964" transform="translate(-0.036 0.003)" fill="none"/>
    </clipPath>
  </defs>
  <g id="Group_5" data-name="Group 5" transform="matrix(-0.998, -0.07, 0.07, -0.998, 134.088, 208.856)" clip-path="url(#clip-path)">
    <path id="Path_1" data-name="Path 1" d="M93.758,9.648l-5,.874q1.173,4.259,2.347,8.515L124.028,8.712q-2.146-3.69-4.295-7.38a136.218,136.218,0,0,0-18.046,21.532,4.436,4.436,0,0,0,1.584,6.041,73.32,73.32,0,0,1,23.7,17.831l.894-6.933A292.561,292.561,0,0,0,99.63,56.25a4.493,4.493,0,0,0-.9,6.935A134.927,134.927,0,0,1,116.39,89.746l4.983-6.485a88.267,88.267,0,0,0-34.187-.839c-2.8.473-4.039,4.254-2.638,6.486q7.253,11.555,14.507,23.107l3.811-6.643a158.19,158.19,0,0,0-29.12,5.192,4.463,4.463,0,0,0-2.64,6.485,77.031,77.031,0,0,1,9.842,28.278q2.13-2.792,4.259-5.587-14.331-1.107-28.666-2.216a4.446,4.446,0,0,0-4.415,4.415A49.176,49.176,0,0,1,50.473,157a46.434,46.434,0,0,1-2.405,6.831c-.521,1.158-1.093,2.3-1.7,3.412q-.456.837-.943,1.656c-.132.217-.265.434-.4.652q-.84,1.245.049.1l2.227-.6-.729-.055,2.229.6c-6.41-2.977-12.536-6.811-18.737-10.209-2.758-1.512-5.374,0-6.485,2.638A84.727,84.727,0,0,1,1.293,192.555l7.537,3.122q.275-15.915.553-31.831c.1-5.683-8.733-5.685-8.83,0Q.275,179.761,0,195.677c-.071,4.033,4.773,5.547,7.537,3.12a94.284,94.284,0,0,0,24.557-34.43l-6.486,2.638q7.52,4.119,15.035,8.24c2.585,1.416,5.312,3.376,8.36,2.248,2.5-.925,3.781-3.594,4.985-5.8a57.474,57.474,0,0,0,6.967-29.76q-2.207,2.209-4.415,4.415,14.333,1.11,28.666,2.216c3.17.245,4.627-3,4.256-5.589a83.467,83.467,0,0,0-10.732-30.388q-1.319,3.245-2.637,6.486a145.39,145.39,0,0,1,26.772-4.876c3.165-.267,5.727-3.6,3.814-6.642Q99.426,96.006,92.172,84.452q-1.319,3.242-2.637,6.486a76.749,76.749,0,0,1,29.491.837,4.472,4.472,0,0,0,4.987-6.485,144.413,144.413,0,0,0-19.037-28.35l-.894,6.935a292.478,292.478,0,0,1,28.236-16.448c2.679-1.367,2.665-4.929.894-6.935a79.723,79.723,0,0,0-25.486-19.212q.792,3.022,1.584,6.041A125.116,125.116,0,0,1,125.977,7.577c3.12-3.014-.067-8.706-4.3-7.38L88.76,10.522c-5.5,1.725-3.186,9.483,2.347,8.515q2.5-.437,5-.876c2.35-.411,3.673-3.288,3.083-5.43-.682-2.481-3.073-3.5-5.43-3.083" transform="translate(-0.001 0.001)" fill="#080909"/>
  </g>
</svg>
