<svg xmlns="http://www.w3.org/2000/svg" xmlns:xlink="http://www.w3.org/1999/xlink" width="133.32" height="91.91" viewBox="0 0 133.32 91.91">
  <defs>
    <clipPath id="clip-path">
      <rect id="Rectangle_14" data-name="Rectangle 14" width="133.32" height="91.91" fill="#f8de5f" stroke="#f8de5f" stroke-width="1"/>
    </clipPath>
  </defs>
  <g id="kruisje-sterretje-geel" transform="translate(0)">
    <g id="Group_17" data-name="Group 17" transform="translate(0 0)" clip-path="url(#clip-path)">
      <path id="Path_78" data-name="Path 78" d="M16.623,3.7a78.73,78.73,0,0,0-.17,11.133,3.7,3.7,0,1,0,7.4,0A78.731,78.731,0,0,1,24.024,3.7a3.717,3.717,0,0,0-1.084-2.617,3.7,3.7,0,0,0-5.234,0A4.157,4.157,0,0,0,16.623,3.7" transform="translate(7.844 0)" fill="#f8de5f" stroke="#f8de5f" stroke-width="1"/>
      <path id="Path_79" data-name="Path 79" d="M30.658,27.419q8.844.069,17.669-.6a3.773,3.773,0,0,0,3.7-3.7c-.083-1.879-1.633-3.859-3.7-3.7q-8.815.673-17.669.6a3.7,3.7,0,1,0,0,7.4" transform="translate(12.946 9.32)" fill="#f8de5f" stroke="#f8de5f" stroke-width="1"/>
      <path id="Path_80" data-name="Path 80" d="M20.133,39.2v11.11a3.7,3.7,0,0,0,7.4,0V39.2a3.7,3.7,0,0,0-7.4,0" transform="translate(9.67 17.049)" fill="#f8de5f" stroke="#f8de5f" stroke-width="1"/>
      <path id="Path_81" data-name="Path 81" d="M3.7,30.053l13.653-.591a3.7,3.7,0,1,0,0-7.4L3.7,22.652a3.7,3.7,0,0,0,0,7.4" transform="translate(0 10.594)" fill="#f8de5f" stroke="#f8de5f" stroke-width="1"/>
      <path id="Path_82" data-name="Path 82" d="M73.531,12.328C74.683,23.361,66.7,33.316,55.4,33.705q.491,3.635.983,7.27c5.961-1.439,12.18,1.149,16.329,5.456C77.26,51.148,79.5,57.79,80.209,64.2l7.27-.984a16.9,16.9,0,0,1,2.2-15.264,19.74,19.74,0,0,1,13.074-7.68,3.664,3.664,0,0,0,2.65-4.061A3.747,3.747,0,0,0,101.768,33a23.729,23.729,0,0,1-20.1-15.825c-1.277-3.847-7.311-3.346-7.27.984a219.685,219.685,0,0,0,1.9,26.714q3.158-1.308,6.316-2.617c-1.322-1.511-2.679-4.6-2.1-6.223q-.477.817-.952,1.633c.1-.1.194-.2.292-.293l-1.633.952.521-.08H76.773a5.126,5.126,0,0,1,3.378,4.484l6.318-2.616a4.818,4.818,0,0,1-1.3-5.436l-6.186,1.633a3.006,3.006,0,0,1,.83,3.915H86.2c.154.308.1-.506-.1-.287.354-.385.626.041.936.41l2.617-6.317L64.162,31.536q.493,3.635.984,7.27a32.041,32.041,0,0,1,9.908-.571c1.992.179,3.7-1.828,3.7-3.7a3.781,3.781,0,0,0-3.7-3.7,38.778,38.778,0,0,0-11.875.835,3.68,3.68,0,0,0-2.651,4.06,3.76,3.76,0,0,0,3.634,3.209l25.491,2.493c3.5.342,4.457-4.126,2.617-6.318A7.833,7.833,0,0,0,82.207,33.7c-3.455,2.238-4.145,6.756-2.394,10.262,1.254,2.511,5.082,2.306,6.391,0a10.446,10.446,0,0,0-1.987-12.885,3.754,3.754,0,0,0-6.186,1.633,12.128,12.128,0,0,0,3.2,12.636c2.191,2.046,6.542.74,6.318-2.617a13.235,13.235,0,0,0-3.211-8.011c-1.859-2.135-5.125-4.416-8.091-3.529-3.658,1.092-3.464,5.57-2.87,8.562a16.751,16.751,0,0,0,4,7.741c1.969,2.252,6.741.579,6.318-2.617a219.682,219.682,0,0,1-1.9-26.714l-7.268.984A31.414,31.414,0,0,0,101.768,40.4q-.493-3.633-.984-7.268C86.137,35.588,75.39,50.572,80.34,65.178a3.722,3.722,0,0,0,4.06,2.651c1.651-.247,3.415-1.781,3.209-3.634-.955-8.58-3.785-17.2-10.062-23.4-6.026-5.958-14.793-8.966-23.128-6.953-4.029.973-3.211,7.413.984,7.268,15-.517,27.108-13.635,25.528-28.779a3.807,3.807,0,0,0-3.7-3.7c-1.84,0-3.91,1.7-3.7,3.7" transform="translate(24.876 4.143)" fill="#f8de5f" stroke="#f8de5f" stroke-width="1"/>
      <path id="Path_83" data-name="Path 83" d="M47.69,55.963a8.71,8.71,0,0,1,.919,1.646l-.373-.884a9.119,9.119,0,0,1,.576,2.124c-.043-.327-.087-.656-.133-.983a9.089,9.089,0,0,1,0,2.355c.043-.327.089-.656.133-.983a9.208,9.208,0,0,1-.37,1.529q2.274-1.295,4.552-2.586A3.347,3.347,0,0,1,52.326,58l.884.373a3.49,3.49,0,0,1-.687-.4c.249.192.5.385.748.579a4.114,4.114,0,0,1-.647-.647c.194.249.388.5.579.749a4.5,4.5,0,0,1-.524-.9q.187.444.375.885a4.412,4.412,0,0,1-.275-1.007c.044.327.09.656.133.983A3.938,3.938,0,0,1,52.9,57.7c-.044.329-.086.656-.13.984a3.384,3.384,0,0,1,.2-.77l-.375.884a3.256,3.256,0,0,1,.336-.6L46.169,57.3a18.186,18.186,0,0,1,.49,2.349c-.044-.327-.089-.656-.132-.983a17.622,17.622,0,0,1-.01,4.6c.043-.329.087-.656.133-.984-.037.244-.077.487-.12.73q3.1-.817,6.185-1.633c-.11-.124-.215-.249-.318-.377l.579.749a7.671,7.671,0,0,1-.919-1.548l.372.884a7.6,7.6,0,0,1-.521-1.895c.043.329.089.656.132.984-.024-.218-.043-.435-.053-.654A3.872,3.872,0,0,0,50.9,56.912a3.7,3.7,0,0,0-6.319,2.617,11.222,11.222,0,0,0,2.9,7.091,3.7,3.7,0,0,0,6.183-1.633,21.493,21.493,0,0,0-.358-9.65,3.716,3.716,0,0,0-3.079-2.651,3.782,3.782,0,0,0-3.687,1.767,7.537,7.537,0,0,0,1.32,9.185,6.686,6.686,0,0,0,3.16,1.682,3.932,3.932,0,0,0,2.854-.373,4.065,4.065,0,0,0,1.7-2.212,12.076,12.076,0,0,0-1.494-10.509,4,4,0,0,0-2.212-1.7,3.787,3.787,0,0,0-2.853.375,3.728,3.728,0,0,0-1.7,2.212,3.641,3.641,0,0,0,.372,2.851" transform="translate(21.413 24.208)" fill="#f8de5f" stroke="#f8de5f" stroke-width="1"/>
    </g>
  </g>
</svg>
