<?xml version="1.0" encoding="UTF-8"?>
<svg id="Layer_2" data-name="Layer 2" xmlns="http://www.w3.org/2000/svg" viewBox="0 0 87.85 70.26">
  <defs>
    <style>
      .cls-1 {
        fill: #050505;
      }

      .cls-2 {
        fill: #4bb86d;
      }
    </style>
  </defs>
  <g id="getekend">
    <g>
      <path class="cls-2" d="m25.38,62.96c-9.07-5.72-14.18-9.48-18.38-18.39-4.3-9.13-2.83-20.46,2.88-28.78C15.58,7.47,25.1,2.12,35.06.54c9.97-1.58,20.31.4,29.49,4.58,5.29,2.4,10.34,5.61,13.94,10.17,5.55,7.03,7.86,14.01,5.73,25.51-.9,4.83-2.22,9.55-5.06,13.49-4.68,6.5-12.42,10.07-20.1,12.35-11.31,3.35-24.78,4.05-33.7-3.68"/>
      <path class="cls-1" d="m38.02,20.59c-.04-.06-.07-.11-.1-.18l.25.6c-.02-.06-.04-.12-.05-.19l.09.66c0-.09,0-.17,0-.26l-.09.66c.02-.09.04-.17.08-.26l-.25.6c.05-.11.11-.2.18-.3l-.39.51c.08-.09.16-.17.26-.25l-.51.39c.08-.06.16-.1.24-.14l-.6.25c.11-.05.22-.08.34-.09l-.66.09c.07,0,.14,0,.21,0l-.66-.09c.13.02.24.05.36.1l-.6-.25c.12.05.22.12.32.2l-.51-.39c.1.08.18.17.27.27l-.39-.51c.11.15.2.3.27.47l-.25-.6c.08.2.13.4.16.61l-.09-.66c.02.2.01.39,0,.6l.09-.66c-.05.34-.15.65-.28.97l.25-.6c-.27.61-.61,1.22-1.02,1.75l.39-.51c-.11.13-.22.25-.35.35l.51-.39c-.09.06-.18.12-.28.16l.6-.25c-.1.03-.19.06-.29.07l.66-.09c-.08,0-.16,0-.25,0l.66.09c-.08-.01-.15-.03-.23-.06l.6.25c-.09-.04-.17-.09-.26-.15l.51.39c-.1-.08-.18-.17-.26-.27l.39.51c-.13-.17-.22-.35-.31-.55l.25.6c-.14-.35-.24-.71-.29-1.08l.09.66c-.08-.61-.1-1.25-.03-1.86l-.09.66c.04-.26.1-.52.2-.77l-.25.6c.07-.16.15-.31.25-.45l-.39.51c.12-.16.26-.29.42-.42l-.51.39c.11-.08.23-.15.36-.21l-.6.25c.13-.05.25-.09.39-.11l-.66.09c.11-.01.21-.01.32,0l-.66-.09c.11.02.21.04.31.08l-.6-.25c.11.05.21.11.31.18l-.51-.39c.07.06.14.13.2.21l-.39-.51c.09.12.16.24.23.38l-.25-.6c.07.17.11.33.14.51l-.09-.66c.02.18.02.35,0,.53l.09-.66c-.03.21-.09.41-.17.6l.25-.6c-.17.39-.39.73-.65,1.06l.39-.51c-.14.18-.28.35-.43.53l3.93.51c-.17-.23-.31-.47-.42-.73l.25.6c-.1-.27-.18-.54-.22-.82l.09.66c-.03-.28-.03-.56,0-.84l-.09-.66c-.08-.33-.23-.61-.45-.85-.3-.39-.79-.81-1.3-.9-.55-.09-1.04-.13-1.59,0-.45.11-1.01.43-1.33.77-.22.22-.42.48-.57.75-.24.43-.43,1.06-.37,1.56.08.68.23,1.26.73,1.77.43.43,1.15.76,1.77.73s1.32-.24,1.77-.73c.42-.46.8-1.12.73-1.77,0-.05-.01-.1,0-.15l-.09.66s.02-.1.04-.14l-.25.6s.04-.09.07-.13l-.39.51s.07-.08.1-.11l-.51.39c.06-.05.12-.08.2-.11l-.6.25s.1-.03.15-.03l-.66.09h.07c-.22-.03-.44-.06-.66-.09h.07c-.61-.79-1.22-1.59-1.84-2.4-.15,1.23.24,2.66.98,3.66.22.38.52.67.9.9.29.18.6.28.93.3.73.1,1.6-.09,2.1-.69.44-.52.89-1.04,1.23-1.63.44-.75.69-1.55.75-2.41.11-1.5-.71-3.17-2.06-3.87-.56-.29-1.04-.42-1.68-.45-.4-.02-.84.03-1.22.16-.75.26-1.49.68-1.99,1.31s-.94,1.38-1.08,2.22c-.12.73-.16,1.43-.12,2.17.06,1.11.29,2.32.93,3.26.53.79,1.18,1.33,2.07,1.66.33.12.7.16,1.05.16.6,0,1.15-.17,1.68-.44.72-.36,1.25-1.02,1.68-1.67.28-.43.54-.87.76-1.34.4-.86.65-1.62.71-2.57.05-.8-.19-1.55-.51-2.27s-.96-1.39-1.65-1.78c-.86-.49-2-.67-2.94-.31s-1.73.94-2.18,1.83c-.27.55-.44,1.09-.43,1.71.01.56.17,1.22.5,1.69.38.54.83.97,1.49,1.15.6.16,1.4.09,1.93-.25s1-.86,1.15-1.49.13-1.38-.25-1.93h0Z"/>
      <path class="cls-1" d="m51.55,26.22v-.08c-.02.22-.05.44-.08.66.07-.48.19-.93.38-1.38l-.25.6c.19-.44.43-.85.72-1.24l-.39.51c.28-.36.59-.67.95-.96l-.51.39c.12-.09.24-.18.38-.25l-.6.25c.05-.02.11-.04.17-.05l-.66.09c.08,0,.14-.01.22,0l-.66-.09s.08.02.12.03l-.6-.25c.06.03.1.05.15.09l-.51-.39s.09.08.13.13l-.39-.51c.08.11.15.22.2.35l-.25-.6c.09.22.14.44.17.68l-.09-.66c.09.67.16,1.34.08,2.02l.09-.66c-.04.27-.1.53-.2.78l.25-.6c-.09.22-.21.41-.35.6l.39-.51c-.11.14-.24.26-.38.38l.51-.39c-.12.09-.25.17-.38.23l.6-.25c-.14.06-.28.1-.43.12l.66-.09c-.1.01-.2.01-.3,0l.66.09c-.12-.02-.24-.05-.36-.09l.6.25c-.12-.05-.22-.11-.32-.18l.51.39c-.12-.09-.22-.19-.31-.31l.39.51c-.06-.08-.1-.16-.14-.25l.25.6c-.04-.09-.06-.18-.08-.27l.09.66c-.01-.09-.01-.18,0-.28l-.09.66c.02-.1.05-.19.07-.29.13-.49.11-.96,0-1.45-.09-.38-.29-.73-.46-1.08l.25.6c-.02-.07-.04-.13-.05-.2l.09.66s0-.09,0-.13l-.09.66.02-.06-.25.6.03-.05-.39.51.04-.05-.51.39.05-.04-.6.25h.04c-.22.02-.44.04-.66.07h.04c-.22-.03-.44-.06-.66-.09h.04c-.2-.07-.4-.16-.6-.24l.03.02-.51-.39.03.03-.39-.51s.03.05.04.07l-.25-.6v.04c-.02-.22-.05-.44-.08-.66,0,.02,0,.05,0,.07l.34-1.26v.03c.12-.17.25-.34.38-.51l-.02.02,1.1-.64h-.03c.44,0,.89,0,1.33,0h-.04c-.33-.11-.66-.12-1-.05-.33.02-.64.11-.93.3-.52.3-1.01.9-1.15,1.49-.15.64-.11,1.36.25,1.93.33.51.87,1.06,1.49,1.15.5.07.88.11,1.37,0,.4-.09.83-.36,1.13-.65.49-.48.77-1.17.77-1.85,0-1.19-.82-2.32-1.98-2.63-1.39-.37-2.97.53-3.28,1.96-.12.53-.11,1.04.02,1.56.08.35.27.66.43.98l-.25-.6c.03.08.05.15.07.23l-.09-.66v.08c.03-.22.06-.44.09-.66-.17.66-.21,1.23-.07,1.89.14.63.47,1.13.87,1.62.67.82,1.78,1.31,2.83,1.33,2.04.03,3.67-1.54,4.26-3.39.15-.49.21-1.02.24-1.53.02-.34,0-.67-.03-1.01-.09-.96-.2-1.84-.62-2.71-.52-1.06-1.71-1.84-2.9-1.77s-2.13.72-2.92,1.55c-.55.57-1.05,1.24-1.39,1.96-.22.46-.42.93-.57,1.42s-.2,1.02-.26,1.53c-.07.59.33,1.37.73,1.77.43.43,1.15.76,1.77.73s1.32-.24,1.77-.73l.39-.51c.23-.39.34-.81.34-1.26h0Z"/>
      <path class="cls-1" d="m17.99,38.22c1.7,7.76,8.36,13.34,15.7,15.64,4.16,1.31,8.63,1.66,12.97,1.51,3.93-.14,8.36-.45,11.69-2.75,4.11-2.84,4.98-7.52,5.46-12.17.14-1.34-1.25-2.5-2.5-2.5-1.47,0-2.36,1.15-2.5,2.5-.2,1.87-.4,3.87-1.21,5.6s-2.15,2.73-3.87,3.32c-4.04,1.39-8.91,1.26-13.1.84-7.79-.78-16.02-5.1-17.82-13.31-.69-3.14-5.51-1.81-4.82,1.33h0Z"/>
      <path class="cls-1" d="m35.43.8c-8.08,1.75-16.41,4.27-23.2,9.14C5.33,14.89.66,22.07.07,30.66s2.84,17.13,8.35,23.58c2,2.33,4.35,4.44,6.72,6.39,1.94,1.6,3.99,3.09,6.24,4.24,5.93,3.03,12.66,3.95,19.2,4.69,8.7.98,17.48,1.31,25.93-1.42s15.63-8.27,19.08-16.54c3.37-8.07,2.86-17.38-.75-25.27-3.67-8.02-10.5-14.41-18.17-18.6-7.47-4.07-15.79-6.61-24.3-6.96-1.13-.05-2.26-.07-3.39-.07-.58,0-1.16,0-1.74,0-.41,0-1.93-.2-.61.09l1.49,3.67h0c-.5.38-1,.76-1.49,1.14.44-.14-.62.02-.19.02.26,0,.54-.05.8-.07.85-.06,1.71-.1,2.57-.11,2.01-.03,4.05.02,6.01.48,3.13.74,4.46-4.08,1.33-4.82-2.59-.61-5.3-.72-7.96-.64-1.6.04-4.51-.21-5.39,1.48-.71,1.36-.15,3.31,1.49,3.67.85.19,1.75.08,2.61.08,1.1,0,2.21,0,3.31.03,1.92.05,3.85.15,5.76.41,3.64.5,7.17,1.61,10.59,2.92,7.38,2.84,14.29,7.12,19.17,13.47,4.69,6.11,7.12,13.98,5.81,21.66-.64,3.74-2.03,7.33-4.33,10.37s-5.27,5.24-8.55,6.91c-6.82,3.48-14.84,4.26-22.38,3.72-6.8-.49-13.94-1.1-20.42-3.38-1.87-.66-3.67-1.52-5.69-2.86-.44-.29-.87-.6-1.3-.91-.11-.08-.23-.17-.34-.26-.3-.23.29.23,0,0-.26-.2-.52-.41-.77-.62-.94-.77-1.84-1.57-2.74-2.39-2.55-2.33-4.89-4.76-6.7-7.72-2-3.26-3.37-6.84-4.01-10.62-1.22-7.16,1.05-14.31,6.2-19.41,5.33-5.28,12.62-8.12,19.74-10.06,1.83-.5,3.67-.93,5.51-1.33,3.14-.68,1.81-5.5-1.33-4.82h0Z"/>
    </g>
  </g>
</svg>