<svg xmlns="http://www.w3.org/2000/svg" xmlns:xlink="http://www.w3.org/1999/xlink" width="100.246" height="86.183" viewBox="0 0 100.246 86.183">
  <defs>
    <clipPath id="clip-path">
      <rect id="Rectangle_12" data-name="Rectangle 12" width="100.246" height="86.183" fill="#4ebb70" stroke="#4ebb70" stroke-width="1"/>
    </clipPath>
  </defs>
  <g id="ster-groen-stroke" transform="translate(0)">
    <g id="Group_13" data-name="Group 13" transform="translate(0 0)" clip-path="url(#clip-path)">
      <path id="Path_74" data-name="Path 74" d="M7.115,47.385l16.508-5.793q4.129-1.446,8.254-2.9c2.443-.856,4.973-1.623,6.984-3.307,1.917-1.607,2.941-3.856,4.014-6.047q1.912-3.9,3.823-7.806,3.824-7.808,7.647-15.614-3.137.4-6.272.8A71.15,71.15,0,0,1,64.793,32.017c.736,1.925,2.7,3.48,4.912,2.764A157.279,157.279,0,0,1,97.37,28.507q-1.941-3.308-3.885-6.616L80.627,36.969c-2.018,2.365-4.074,4.7-6.053,7.1-2,2.421-3.42,4.987-2.992,8.223.4,2.99,2.139,5.373,3.984,7.672,1.7,2.117,3.377,4.232,4.957,6.44a129.183,129.183,0,0,1,9.284,15.1l4.51-5.813a330.441,330.441,0,0,0-39.9-13.263c-3.312-.866-6.3-.9-9.269,1-2.719,1.732-5.211,3.85-7.9,5.645a133.863,133.863,0,0,1-17.518,9.858L25.2,84.34A99.521,99.521,0,0,0,35.949,56.208c.588-2.739-1.193-4.7-3.852-5.009a88,88,0,0,1-26.12-7.3,4.133,4.133,0,0,0-5.463,1.42c-1.006,1.707-.537,4.518,1.433,5.416A100.278,100.278,0,0,0,32.1,59.115L28.246,54.1a92.323,92.323,0,0,1-9.941,26.242c-2.062,3.641,1.963,7.057,5.463,5.414a133.792,133.792,0,0,0,16.32-9.066c2.609-1.7,5.136-3.511,7.63-5.375.789-.59,1.784-1.6,2.808-1.653,1.244-.068,2.786.66,3.97.98a335.419,335.419,0,0,1,37.7,12.676c3.478,1.4,5.954-3.066,4.51-5.813A129.4,129.4,0,0,0,88.647,64.15c-1.538-2.226-3.153-4.4-4.821-6.529-1.351-1.729-3.371-3.586-4.161-5.672-.639-1.688,1.24-3.087,2.24-4.259q2.828-3.317,5.657-6.633,5.787-6.784,11.572-13.569c2.732-3.2.053-7.141-3.885-6.616a157.53,157.53,0,0,0-27.665,6.274l4.912,2.766A80.321,80.321,0,0,0,53.721,1.126c-1.711-1.678-5.128-1.534-6.272.8l-7.126,14.55q-1.737,3.548-3.474,7.1c-.858,1.751-1.645,4.531-3.187,5.842-1.4,1.186-3.733,1.588-5.407,2.175l-7.5,2.633L4.992,39.753A4.053,4.053,0,0,0,2.2,44.621a4.033,4.033,0,0,0,4.912,2.764" transform="translate(0 -0.001)" fill="#4ebb70" stroke="#4ebb70" stroke-width="1"/>
    </g>
  </g>
</svg>
