<?xml version="1.0" encoding="UTF-8"?>
<svg id="Layer_2" data-name="Layer 2" xmlns="http://www.w3.org/2000/svg" viewBox="0 0 62.75 54.44">
  <defs>
    <style>
      .cls-1 {
        fill: #050505;
      }
    </style>
  </defs>
  <g id="getekend">
    <path class="cls-1" d="m4.45,29.93l10.33-3.66,5.17-1.83c1.53-.54,3.11-1.02,4.37-2.09s1.84-2.44,2.51-3.82c.8-1.64,1.6-3.29,2.39-4.93,1.6-3.29,3.19-6.58,4.79-9.86l-3.93.51c4.57,4.52,8.18,9.96,10.47,15.98.46,1.22,1.69,2.2,3.08,1.75,5.64-1.84,11.43-3.17,17.32-3.96l-2.43-4.18c-2.68,3.17-5.37,6.35-8.05,9.52-1.26,1.49-2.55,2.97-3.79,4.49s-2.14,3.15-1.87,5.19c.25,1.89,1.34,3.39,2.49,4.85,1.06,1.34,2.11,2.67,3.1,4.07,2.16,3.04,4.09,6.23,5.81,9.54l2.82-3.67c-8.14-3.31-16.48-6.14-24.97-8.38-2.07-.55-3.94-.57-5.8.63-1.7,1.09-3.26,2.43-4.94,3.57-3.49,2.35-7.16,4.43-10.97,6.23l3.42,3.42c3.12-5.55,5.4-11.55,6.73-17.77.37-1.73-.75-2.97-2.41-3.16-5.63-.66-11.2-2.25-16.35-4.61-1.23-.56-2.69-.35-3.42.9-.63,1.08-.34,2.85.9,3.42,6.02,2.77,12.3,4.52,18.87,5.3l-2.41-3.16c-1.24,5.83-3.31,11.38-6.22,16.58-1.29,2.3,1.23,4.46,3.42,3.42,3.53-1.67,6.95-3.58,10.22-5.73,1.63-1.08,3.21-2.22,4.78-3.4.49-.37,1.12-1.01,1.76-1.04.78-.04,1.74.42,2.48.62,8.02,2.19,15.9,4.87,23.6,8.01,2.18.89,3.73-1.94,2.82-3.67-1.52-2.91-3.19-5.73-5.04-8.44-.96-1.41-1.97-2.78-3.02-4.12-.85-1.09-2.11-2.26-2.6-3.58-.4-1.07.78-1.95,1.4-2.69,1.18-1.4,2.36-2.79,3.54-4.19,2.41-2.86,4.83-5.71,7.24-8.57,1.71-2.02.03-4.51-2.43-4.18-5.89.79-11.67,2.12-17.32,3.96l3.08,1.75c-2.59-6.84-6.54-13.03-11.75-18.18-1.07-1.06-3.21-.97-3.93.51-1.49,3.06-2.97,6.13-4.46,9.19-.73,1.49-1.45,2.99-2.18,4.48-.54,1.11-1.03,2.86-1.99,3.69-.87.75-2.34,1-3.38,1.37l-4.7,1.66-9.86,3.49c-1.27.45-2.12,1.71-1.75,3.08.34,1.23,1.8,2.2,3.08,1.75h0Z"/>
  </g>
</svg>