<svg id="gele-smiley" xmlns="http://www.w3.org/2000/svg" xmlns:xlink="http://www.w3.org/1999/xlink" width="135.975" height="121.209" viewBox="0 0 135.975 121.209">
  <defs>
    <clipPath id="clip-path">
      <rect id="Rectangle_50" data-name="Rectangle 50" width="135.975" height="121.209" fill="none"/>
    </clipPath>
  </defs>
  <g id="Group_63" data-name="Group 63" transform="translate(0 0)" clip-path="url(#clip-path)">
    <path id="Path_176" data-name="Path 176" d="M106.176,17.487c12.861,10.251,20.393,24.472,25.669,38.057,5.408,13.926-11.368,34.713-20.752,45.121s-24.117,15.692-39.107,15.551-30.148-5.4-43.353-13.49C21.031,98.069,13.86,92.33,9,85.028,1.507,73.765-1.168,63.348,3.25,47.612c1.858-6.62,4.341-12.975,8.979-17.861,7.662-8.073,25.25-24.538,36.915-25.926,17.181-2.046,44.616.614,57.032,13.662" transform="translate(0.594 1.715)" fill="#f8db5f"/>
    <path id="Path_177" data-name="Path 177" d="M41.72,26.224a1.79,1.79,0,0,1-.16-.273l.387.918a1.727,1.727,0,0,1-.08-.29c.046.341.092.68.137,1.02a1.722,1.722,0,0,1,.006-.4c-.046.341-.092.68-.137,1.02a2.064,2.064,0,0,1,.117-.393l-.387.916a2.5,2.5,0,0,1,.279-.453c-.2.259-.4.517-.6.776a2.622,2.622,0,0,1,.394-.377l-.776.6a2.624,2.624,0,0,1,.376-.221l-.918.387a2.105,2.105,0,0,1,.517-.143l-1.019.137a2.054,2.054,0,0,1,.322,0l-1.019-.138a2.319,2.319,0,0,1,.556.157l-.916-.388a2.758,2.758,0,0,1,.49.3l-.776-.6a3.266,3.266,0,0,1,.408.416c-.2-.259-.4-.517-.6-.776a3.656,3.656,0,0,1,.42.723l-.387-.916a3.989,3.989,0,0,1,.246.941c-.046-.339-.091-.68-.137-1.019a4.13,4.13,0,0,1-.015.913c.046-.339.092-.68.137-1.019a6.3,6.3,0,0,1-.434,1.485l.387-.916A13.666,13.666,0,0,1,36.975,31.3q.3-.389.6-.776a3.555,3.555,0,0,1-.532.542l.776-.6a2.4,2.4,0,0,1-.425.247l.916-.387a2.085,2.085,0,0,1-.44.112l1.019-.137a1.971,1.971,0,0,1-.381,0l1.019.137a1.833,1.833,0,0,1-.348-.1l.916.387a1.951,1.951,0,0,1-.393-.233l.776.6a2.744,2.744,0,0,1-.4-.419q.3.389.6.776a4.331,4.331,0,0,1-.474-.838q.193.46.387.918a6.985,6.985,0,0,1-.448-1.659l.138,1.019a11.588,11.588,0,0,1-.043-2.86c-.046.339-.092.68-.137,1.019a5.3,5.3,0,0,1,.3-1.177l-.387.918a3.622,3.622,0,0,1,.39-.694l-.6.776a3.549,3.549,0,0,1,.64-.638l-.776.6a3.3,3.3,0,0,1,.548-.318l-.916.387a2.724,2.724,0,0,1,.592-.169l-1.019.137a2.468,2.468,0,0,1,.488-.006c-.341-.046-.68-.092-1.02-.137a2.371,2.371,0,0,1,.473.12l-.916-.387a2.322,2.322,0,0,1,.48.282l-.776-.6a2.623,2.623,0,0,1,.312.315c-.2-.259-.4-.517-.6-.776a2.879,2.879,0,0,1,.347.585l-.387-.916a3.482,3.482,0,0,1,.213.786c-.046-.339-.092-.68-.137-1.019a3.569,3.569,0,0,1,0,.819l.138-1.02a4.4,4.4,0,0,1-.258.927l.387-.916a7.611,7.611,0,0,1-1,1.634l.6-.776c-.215.273-.436.54-.66.807l6.026.775a5.454,5.454,0,0,1-.643-1.126l.387.918a5.75,5.75,0,0,1-.333-1.254l.138,1.019a5.391,5.391,0,0,1,0-1.3l-.138-1.019a2.873,2.873,0,0,0-.686-1.3,3.53,3.53,0,0,0-1.993-1.375,5.73,5.73,0,0,0-2.438.012,4.862,4.862,0,0,0-2.047,1.177,5.435,5.435,0,0,0-.875,1.148,4.392,4.392,0,0,0-.575,2.388A4.179,4.179,0,0,0,34.5,31.368a3.838,3.838,0,0,0,5.426,0,3.709,3.709,0,0,0,1.123-2.713.725.725,0,0,1-.008-.23c-.046.339-.092.68-.137,1.019a.871.871,0,0,1,.058-.221l-.387.918a.962.962,0,0,1,.115-.2c-.2.258-.4.517-.6.776a1.05,1.05,0,0,1,.16-.17l-.776.6a1.509,1.509,0,0,1,.3-.175l-.916.387a.847.847,0,0,1,.223-.048l-1.019.138h.115l-1.02-.137.115.018-2.816-3.7a8.3,8.3,0,0,0,1.5,5.613,3.854,3.854,0,0,0,1.377,1.377,2.851,2.851,0,0,0,1.427.456,3.634,3.634,0,0,0,3.223-1.056,19.286,19.286,0,0,0,1.892-2.5,8.318,8.318,0,0,0,1.157-3.7,6.376,6.376,0,0,0-3.163-5.94,5.844,5.844,0,0,0-2.573-.694,5.094,5.094,0,0,0-1.866.25,6.581,6.581,0,0,0-3.055,2.01,7.451,7.451,0,0,0-1.656,3.411,14.611,14.611,0,0,0-.18,3.332A10.09,10.09,0,0,0,33.958,35.2a6.28,6.28,0,0,0,3.18,2.54,4.868,4.868,0,0,0,1.605.247,5.694,5.694,0,0,0,2.58-.671A7.019,7.019,0,0,0,43.9,34.75,16.349,16.349,0,0,0,45.066,32.7a10.477,10.477,0,0,0,1.086-3.947,7.39,7.39,0,0,0-.787-3.48,6.193,6.193,0,0,0-2.54-2.739,5.467,5.467,0,0,0-4.507-.476,6,6,0,0,0-3.341,2.814,5.5,5.5,0,0,0-.657,2.627,4.868,4.868,0,0,0,.773,2.6,4.131,4.131,0,0,0,2.293,1.763,3.921,3.921,0,0,0,2.956-.388,3.867,3.867,0,0,0,1.763-2.293,3.781,3.781,0,0,0-.387-2.956" transform="translate(17.38 11.322)" fill="#050505"/>
    <path id="Path_178" data-name="Path 178" d="M56.673,35.639c0-.043.011-.086.015-.129-.044.341-.091.68-.137,1.02a8.716,8.716,0,0,1,.575-2.116l-.387.916a9.014,9.014,0,0,1,1.1-1.9l-.6.776A8.7,8.7,0,0,1,58.7,32.743l-.776.6a3.506,3.506,0,0,1,.58-.376l-.916.387a1.139,1.139,0,0,1,.262-.084c-.341.045-.68.091-1.02.137a1.345,1.345,0,0,1,.333,0l-1.02-.137a.785.785,0,0,1,.178.049l-.916-.387a1.288,1.288,0,0,1,.236.135l-.776-.6a1.867,1.867,0,0,1,.2.2l-.6-.776a2.44,2.44,0,0,1,.307.531l-.387-.918a4.6,4.6,0,0,1,.264,1.04c-.046-.339-.092-.68-.137-1.019a12.576,12.576,0,0,1,.129,3.092l.138-1.02a5.242,5.242,0,0,1-.31,1.2q.193-.46.387-.918a4.343,4.343,0,0,1-.542.922q.3-.387.6-.776a3.976,3.976,0,0,1-.579.58c.258-.2.517-.4.775-.6a3.317,3.317,0,0,1-.589.354l.916-.387a2.884,2.884,0,0,1-.661.187l1.02-.138a2.379,2.379,0,0,1-.456.008l1.019.138a2.59,2.59,0,0,1-.548-.141l.916.387a2.828,2.828,0,0,1-.5-.282l.776.6a2.676,2.676,0,0,1-.479-.48c.2.259.4.517.6.776a2.5,2.5,0,0,1-.221-.382l.387.916a2.13,2.13,0,0,1-.123-.413q.069.511.138,1.02a1.9,1.9,0,0,1-.006-.428c-.046.341-.091.68-.137,1.02.026-.15.074-.293.114-.44a4.442,4.442,0,0,0-.006-2.221,8.78,8.78,0,0,0-.7-1.659l.387.916a1.631,1.631,0,0,1-.081-.308c.046.341.091.68.137,1.02a.746.746,0,0,1,0-.2c-.046.341-.092.68-.137,1.02l.023-.094q-.193.458-.387.918l.04-.084c-.2.259-.4.519-.6.776.02-.023.038-.048.058-.071l-.776.6c.026-.018.052-.037.078-.057l-.916.387.061-.021-1.019.137H53.5c-.341-.046-.68-.092-1.02-.137l.054.018-.916-.387.048.035-.776-.6c.014.015.028.032.043.048l-.6-.776a.512.512,0,0,1,.06.115L50,34.77l.015.06c-.045-.339-.091-.68-.137-1.019a.268.268,0,0,1,0,.11q.262-.969.523-1.937l-.017.043q.3-.389.6-.776l-.031.029,1.693-.987-.046.012h2.039L54.58,30.3a2.916,2.916,0,0,0-1.53-.069,2.851,2.851,0,0,0-1.426.456,3.835,3.835,0,0,0-1.377,5.248,3.676,3.676,0,0,0,2.293,1.763,5.409,5.409,0,0,0,2.1.009,3.891,3.891,0,0,0,1.739-1,4.036,4.036,0,0,0,1.18-2.836,4.221,4.221,0,0,0-3.043-4.036,4.17,4.17,0,0,0-5.04,3.006,5.22,5.22,0,0,0,.029,2.4,7.619,7.619,0,0,0,.658,1.51l-.387-.916a1.492,1.492,0,0,1,.1.361c-.046-.341-.092-.68-.137-1.02l0,.12c.046-.339.092-.68.137-1.019a6,6,0,0,0-.107,2.908A6.062,6.062,0,0,0,55.449,41.7c3.135.043,5.633-2.356,6.537-5.21a9.79,9.79,0,0,0,.367-2.346,10.037,10.037,0,0,0-.046-1.548,11.393,11.393,0,0,0-.958-4.159,4.874,4.874,0,0,0-4.455-2.716A6.835,6.835,0,0,0,52.407,28.1,11.724,11.724,0,0,0,50.274,31.1a14.658,14.658,0,0,0-.869,2.185A14.806,14.806,0,0,0,49,35.639a3.824,3.824,0,0,0,1.123,2.713,3.838,3.838,0,0,0,5.426,0q.3-.389.6-.776a3.817,3.817,0,0,0,.523-1.937" transform="translate(26.187 13.748)" fill="#050505"/>
    <path id="Path_179" data-name="Path 179" d="M19.388,41.646c1.159,5.583,2.524,11.333,6.078,15.929,4.123,5.334,10.687,7.842,17.112,9.175a62.865,62.865,0,0,0,22.352.625c7.036-1.133,13.071-5.01,18.6-9.3A14.237,14.237,0,0,0,87.9,53.329a17.321,17.321,0,0,0,1.246-6.054c.21-2.064-1.914-3.836-3.836-3.836a3.922,3.922,0,0,0-3.836,3.836c-.069.675-.129,1.35-.209,2.024.134-1.126-.163.364-.252.77.14-.628.121-.514-.052-.014-.236.684.313-.264-.08.138a21.638,21.638,0,0,1-1.717,1.616c-3.958,3.273-9.062,6.562-14.368,7.8a40.768,40.768,0,0,1-8.983.729,54.608,54.608,0,0,1-9.187-.612c-5.05-.832-10.92-2.2-14.522-6.106-3.333-3.612-4.32-9.209-5.317-14.011a3.837,3.837,0,1,0-7.4,2.039" transform="translate(10.313 19.673)" fill="#050505"/>
    <path id="Path_180" data-name="Path 180" d="M49.028,1.229C37.353,5.006,25.842,10.007,16.455,18.074A46.453,46.453,0,0,0,.1,50.369C-.7,62.931,3.488,75.833,10.464,86.2c7.595,11.279,18.944,19.788,31.015,25.819,12.125,6.058,25.926,9.964,39.576,9.062a64.13,64.13,0,0,0,35.631-13.94,49.9,49.9,0,0,0,18.938-33.676,60,60,0,0,0-9.407-38.8A72.29,72.29,0,0,0,96.93,9.126C85.141,3.454,72.278.043,59.156.482,57.6.534,56.05.623,54.5.732q-1.344.092-2.687.207c-.608.051-3.018-.055-.954.293q1.34,2.359,2.681,4.72l0-.012L51.781,8.233c-1.567.689.143.144.842.032.281-.046.565-.087.847-.129.687-.1-.974.112.367-.045.687-.08,1.377-.153,2.067-.213a35.308,35.308,0,0,1,9.014.087,3.943,3.943,0,0,0,4.72-2.679c.509-1.863-.632-4.346-2.681-4.719A43.02,43.02,0,0,0,54.5.344C51.56.666,47.309.56,46.14,3.911a3.852,3.852,0,0,0,2.679,4.72c2.817.476,5.98-.279,8.833-.416a79.876,79.876,0,0,1,8.742.012A64.685,64.685,0,0,1,82.7,11.705c11.471,3.8,21.958,9.649,30.318,18.5A54.76,54.76,0,0,1,128,61.966c1.2,11.871-1.559,23.617-9.451,32.761a55.348,55.348,0,0,1-29.3,17.434c-11.756,2.748-23.939,1.027-35.188-3.025C31.882,101.148,11.18,83.611,8.031,59.071c-1.38-10.751,1.3-21.7,8.356-30.053s16.928-13.8,27-17.689c2.534-.978,5.1-1.866,7.68-2.7,4.679-1.513,2.678-8.923-2.039-7.4" transform="translate(0 0)" fill="#050505"/>
  </g>
</svg>
