<svg xmlns="http://www.w3.org/2000/svg" xmlns:xlink="http://www.w3.org/1999/xlink" width="47" height="47" viewBox="0 0 47 47">
  <defs>
    <clipPath id="clip-path">
      <rect id="Rectangle_13" data-name="Rectangle 13" width="26.35" height="22.135" fill="#e88fbc"/>
    </clipPath>
  </defs>
  <g id="hamburger-icon" transform="translate(-308 -42)">
    <g id="Ellipse_9" data-name="Ellipse 9" transform="translate(308 42)" fill="#faf5e9" stroke="#000" stroke-width="3">
      <circle cx="23.5" cy="23.5" r="23.5" stroke="none"/>
      <circle cx="23.5" cy="23.5" r="22" fill="none"/>
    </g>
    <g id="Group_165" data-name="Group 165" transform="translate(313.386 56.204) rotate(1)">
      <g id="Group_15" data-name="Group 15" transform="translate(1.017 0.982)" clip-path="url(#clip-path)">
        <path id="Path_75" data-name="Path 75" d="M.708,4.329a147.392,147.392,0,0,1,16.69-2c.908-.057.913-2.38,0-2.323a147.392,147.392,0,0,0-16.69,2C.328,2.073,0,2.491,0,3.167,0,3.743.325,4.4.708,4.329" transform="translate(8.268 0)" fill="#e88fbc"/>
        <path id="Path_76" data-name="Path 76" d="M.682,3.7,15.672,2.325c.906-.083.912-2.406,0-2.323L.682,1.373c-.907.083-.912,2.406,0,2.323" transform="translate(8.828 7.16)" fill="#e88fbc"/>
        <path id="Path_77" data-name="Path 77" d="M.682,3.248l11.529-.923c.907-.072.913-2.4,0-2.323L.682.925c-.907.072-.913,2.4,0,2.323" transform="translate(10.667 13.632)" fill="#e88fbc"/>
      </g>
    </g>
  </g>
</svg>
