<svg xmlns="http://www.w3.org/2000/svg" xmlns:xlink="http://www.w3.org/1999/xlink" width="107.774" height="74.299" viewBox="0 0 107.774 74.299">
  <defs>
    <clipPath id="clip-path">
      <rect id="Rectangle_14" data-name="Rectangle 14" width="107.774" height="74.299" fill="none"/>
    </clipPath>
  </defs>
  <g id="kruisje-sterretje-zwart" transform="translate(0 0)">
    <g id="Group_17" data-name="Group 17" transform="translate(0 0)" clip-path="url(#clip-path)">
      <path id="Path_78" data-name="Path 78" d="M16.567,2.994a63.644,63.644,0,0,0-.138,9,2.992,2.992,0,1,0,5.983,0,63.645,63.645,0,0,1,.138-9A3.005,3.005,0,0,0,21.674.878a2.993,2.993,0,0,0-4.231,0,3.36,3.36,0,0,0-.876,2.116" transform="translate(3.212 0)" fill="#080909"/>
      <path id="Path_79" data-name="Path 79" d="M29.948,25.884q7.149.056,14.283-.488a2.992,2.992,0,1,0,0-5.983q-7.126.544-14.283.488a2.992,2.992,0,1,0,0,5.983" transform="translate(5.301 3.816)" fill="#080909"/>
      <path id="Path_80" data-name="Path 80" d="M20.133,38.491v8.981a2.992,2.992,0,0,0,5.983,0V38.491a2.992,2.992,0,1,0-5.983,0" transform="translate(3.96 6.981)" fill="#080909"/>
      <path id="Path_81" data-name="Path 81" d="M2.994,28.521l11.037-.477a2.992,2.992,0,1,0,0-5.983l-11.037.477a2.992,2.992,0,1,0,0,5.983" transform="translate(0 4.338)" fill="#080909"/>
      <path id="Path_82" data-name="Path 82" d="M69.365,11.619A15.406,15.406,0,0,1,54.712,28.9q.4,2.938.795,5.877c4.819-1.163,9.846.929,13.2,4.411,3.673,3.813,5.48,9.182,6.056,14.36l5.877-.8a13.664,13.664,0,0,1,1.778-12.339A15.957,15.957,0,0,1,92.987,34.2a2.962,2.962,0,0,0,2.142-3.282,3.029,3.029,0,0,0-2.938-2.594,19.182,19.182,0,0,1-16.25-12.792c-1.033-3.11-5.91-2.7-5.877.8a177.594,177.594,0,0,0,1.533,21.6L76.7,35.811c-1.069-1.222-2.166-3.719-1.7-5.031l-.769,1.32.236-.237-1.32.769.421-.065h-1.59a4.144,4.144,0,0,1,2.731,3.625l5.107-2.115a3.9,3.9,0,0,1-1.051-4.394l-5,1.32a2.43,2.43,0,0,1,.671,3.165H79.61c.124.249.079-.409-.084-.232.286-.311.506.034.756.331L82.4,29.162,61.792,27.147q.4,2.938.8,5.877a25.9,25.9,0,0,1,8.009-.462,3.014,3.014,0,0,0,2.992-2.992A3.056,3.056,0,0,0,70.6,26.578a31.347,31.347,0,0,0-9.6.675,2.975,2.975,0,0,0-2.143,3.282,3.039,3.039,0,0,0,2.938,2.594L82.4,35.145c2.833.276,3.6-3.335,2.116-5.107a6.332,6.332,0,0,0-8.135-1.144,6.4,6.4,0,0,0-1.935,8.3c1.014,2.03,4.108,1.864,5.166,0A8.444,8.444,0,0,0,78,26.773a3.034,3.034,0,0,0-5,1.32,9.8,9.8,0,0,0,2.59,10.215c1.771,1.654,5.288.6,5.107-2.116a10.7,10.7,0,0,0-2.6-6.476c-1.5-1.726-4.143-3.57-6.541-2.853-2.957.883-2.8,4.5-2.32,6.922a13.542,13.542,0,0,0,3.231,6.257c1.592,1.82,5.45.468,5.107-2.116a177.589,177.589,0,0,1-1.533-21.6l-5.876.8A25.4,25.4,0,0,0,92.192,34.311q-.4-2.937-.8-5.876c-11.84,1.986-20.528,14.1-16.526,25.907a3.009,3.009,0,0,0,3.282,2.143,2.953,2.953,0,0,0,2.594-2.938c-.772-6.936-3.06-13.9-8.134-18.919a20.2,20.2,0,0,0-18.7-5.621c-3.257.786-2.6,5.993.8,5.876,12.128-.418,21.913-11.023,20.637-23.264a3.078,3.078,0,0,0-2.992-2.992,3.012,3.012,0,0,0-2.992,2.992" transform="translate(10.186 1.696)" fill="#080909"/>
      <path id="Path_83" data-name="Path 83" d="M47.094,54.9a7.041,7.041,0,0,1,.743,1.331l-.3-.714A7.371,7.371,0,0,1,48,57.231c-.035-.264-.071-.53-.108-.795a7.348,7.348,0,0,1,0,1.9c.035-.264.072-.53.108-.795a7.444,7.444,0,0,1-.3,1.236q1.838-1.046,3.68-2.091a2.705,2.705,0,0,1-.539-.151l.714.3A2.821,2.821,0,0,1,51,56.52c.2.156.4.311.6.468a3.325,3.325,0,0,1-.523-.523c.157.2.314.4.468.606a3.639,3.639,0,0,1-.424-.73q.151.359.3.716a3.566,3.566,0,0,1-.223-.814c.036.264.073.53.108.795a3.185,3.185,0,0,1,0-.74c-.036.266-.069.53-.105.8a2.735,2.735,0,0,1,.16-.622l-.3.714a2.633,2.633,0,0,1,.272-.488l-5.469-.716a14.7,14.7,0,0,1,.4,1.9c-.036-.264-.072-.53-.107-.795a14.246,14.246,0,0,1-.008,3.722c.035-.266.071-.53.108-.8-.03.2-.062.394-.1.59l5-1.32c-.089-.1-.174-.2-.257-.305l.468.606a6.2,6.2,0,0,1-.743-1.252l.3.714a6.14,6.14,0,0,1-.421-1.532c.035.266.072.53.107.8-.019-.176-.035-.352-.043-.529a3.13,3.13,0,0,0-.875-2.116,2.993,2.993,0,0,0-5.109,2.116,9.071,9.071,0,0,0,2.344,5.732,2.99,2.99,0,0,0,5-1.32,17.375,17.375,0,0,0-.29-7.8,3,3,0,0,0-2.489-2.143,3.057,3.057,0,0,0-2.981,1.429A6.092,6.092,0,0,0,47.234,61.1a5.405,5.405,0,0,0,2.555,1.359,3.179,3.179,0,0,0,2.307-.3,3.286,3.286,0,0,0,1.373-1.788,9.762,9.762,0,0,0-1.207-8.5A3.231,3.231,0,0,0,50.473,50.5a3.061,3.061,0,0,0-2.306.3,3.014,3.014,0,0,0-1.374,1.788,2.943,2.943,0,0,0,.3,2.3" transform="translate(8.768 9.912)" fill="#080909"/>
    </g>
  </g>
</svg>
