<svg xmlns="http://www.w3.org/2000/svg" xmlns:xlink="http://www.w3.org/1999/xlink" width="130.26" height="79.427" viewBox="0 0 130.26 79.427">
  <defs>
    <clipPath id="clip-path">
      <rect id="Rectangle_13" data-name="Rectangle 13" width="127.72" height="75.015" fill="#43a3db"/>
    </clipPath>
  </defs>
  <g id="streepjes-blauw" transform="matrix(0.999, 0.035, -0.035, 0.999, 2.618, 0)">
    <g id="Group_15" data-name="Group 15" transform="translate(0 0)" clip-path="url(#clip-path)">
      <path id="Path_75" data-name="Path 75" d="M3.432,14.67q40.332-5.024,80.9-6.793c4.4-.192,4.425-8.065,0-7.873Q43.791,1.77,3.432,6.8A3.823,3.823,0,0,0,0,10.733C0,12.684,1.577,14.9,3.432,14.67" transform="translate(40.078 0)" fill="#43a3db"/>
      <path id="Path_76" data-name="Path 76" d="M3.306,12.526,75.962,7.881c4.393-.28,4.42-8.155,0-7.873L3.306,4.653c-4.394.28-4.422,8.155,0,7.873" transform="translate(0 30.339)" fill="#43a3db"/>
      <path id="Path_77" data-name="Path 77" d="M3.308,11.008,59.192,7.879c4.4-.246,4.423-8.12,0-7.873L3.308,3.134c-4.4.246-4.423,8.12,0,7.873" transform="translate(43.747 64.003)" fill="#43a3db"/>
    </g>
  </g>
</svg>
