<svg xmlns="http://www.w3.org/2000/svg" xmlns:xlink="http://www.w3.org/1999/xlink" width="134.398" height="81.95" viewBox="0 0 134.398 81.95">
  <defs>
    <clipPath id="clip-path">
      <rect id="Rectangle_13" data-name="Rectangle 13" width="131.777" height="77.398" fill="#f8de5f"/>
    </clipPath>
  </defs>
  <g id="streepjes-geel" transform="matrix(0.999, 0.035, -0.035, 0.999, 2.701, 0)">
    <g id="Group_15" data-name="Group 15" transform="translate(0)" clip-path="url(#clip-path)">
      <path id="Path_75" data-name="Path 75" d="M3.541,15.135Q45.154,9.952,87.009,8.127c4.542-.2,4.565-8.321,0-8.123Q45.182,1.826,3.541,7.012A3.944,3.944,0,0,0,0,11.074c0,2.013,1.627,4.3,3.541,4.062" transform="translate(41.351 0)" fill="#f8de5f"/>
      <path id="Path_76" data-name="Path 76" d="M3.411,12.923,78.375,8.131c4.533-.289,4.561-8.414,0-8.123L3.411,4.8c-4.534.289-4.562,8.414,0,8.123" transform="translate(0 31.302)" fill="#f8de5f"/>
      <path id="Path_77" data-name="Path 77" d="M3.413,11.357l57.66-3.228c4.537-.253,4.564-8.378,0-8.123L3.413,3.234c-4.537.253-4.564,8.378,0,8.123" transform="translate(45.137 66.036)" fill="#f8de5f"/>
    </g>
  </g>
</svg>
