<svg xmlns="http://www.w3.org/2000/svg" xmlns:xlink="http://www.w3.org/1999/xlink" width="266.684" height="268.886" viewBox="0 0 266.684 268.886">
  <defs>
    <clipPath id="clip-path">
      <path id="Path_182" data-name="Path 182" d="M0,0,166.46,39.151l34.517,139.5L34.517,139.5Z" transform="translate(-702.585 -2414.67) rotate(-42)" fill="#080909"/>
    </clipPath>
  </defs>
  <g id="Twister" transform="translate(-2291.733 660.337) rotate(91)" clip-path="url(#clip-path)">
    <path id="Path_181" data-name="Path 181" d="M3.62,4.6c8.251.732,17.676,4.258,26.313,9.687A80.347,80.347,0,0,1,52.426,35.47,64.855,64.855,0,0,1,59.4,47.907c1.622,3.868,3.017,8.179,2.883,11.609-.063,1.617-.595,2.961-2.071,3.486a10.761,10.761,0,0,1-5.269-.066,54.769,54.769,0,0,1-14.16-5.017,62.064,62.064,0,0,1-13.536-9.06c-3.066-2.785-6.71-7.248-3.913-9.044a10.758,10.758,0,0,1,4.824-1.085,39.874,39.874,0,0,1,6.29.066A54.064,54.064,0,0,1,47.6,41.771,79.175,79.175,0,0,1,73.648,57.463a80.754,80.754,0,0,1,17.8,22.616c3.71,7.241,5.947,15.033,4.193,20.713a7.909,7.909,0,0,1-5.194,5.57c-2.434.786-5.664.364-8.831-.893-6.824-2.709-13.778-8.654-16.594-15.14-3-6.91-.544-12.893,4.436-15.067,6.514-2.847,16.425,1.215,24.975,6.783A120.764,120.764,0,0,1,118.492,102.9c6.558,7.434,12.1,15.682,14.836,23.7,1.465,4.29,2.388,8.76,1.158,12.042-.982,2.621-3.395,4.227-6.607,4.524a18.086,18.086,0,0,1-10.658-2.717,29.73,29.73,0,0,1-9.678-9.379c-4.632-7.371-2.743-13.537,2.32-16.072a16.965,16.965,0,0,1,9.554-1.436,48.373,48.373,0,0,1,14.792,4.768c10.2,4.888,20.313,12.069,29.692,19.289q6.919,5.325,13.477,11.134c2.772,2.447,5.384.089,2.6-2.369a265.218,265.218,0,0,0-32.312-24.547c-10.647-6.805-22.732-12.96-32.878-13-8.176-.032-15.046,4.23-14.872,12.2.179,8.312,8.1,18.69,17.876,23.853,9.46,5,19.108,3.438,21.454-3.179,2.632-7.425-2.126-18.8-8.128-28.178A116.8,116.8,0,0,0,108.3,88.116C98.733,80.021,87.089,71.974,76.419,70.1c-9.242-1.62-15.838,2.231-17.319,9.478-1.4,6.864,2.914,16.077,11.092,22.963,7.6,6.4,17.285,10.377,23.766,8.193,6.918-2.332,8.165-10.3,6.469-18.337C96.655,74.525,79.159,54.173,59.82,43.285,49.4,37.418,38.427,34.161,28.975,34.039c-4.295-.056-9.734.109-11.23,3.557-1.667,3.846,2.452,9.589,6.9,13.634A72.678,72.678,0,0,0,40.173,61.716,59.85,59.85,0,0,0,56.43,67.467a15.514,15.514,0,0,0,6.891.038,5.233,5.233,0,0,0,3.7-4.286c.76-3.7-.72-8.716-2.413-13.185-3.639-9.6-10.3-19.481-19-27.884A86,86,0,0,0,16.286,3.486,59.055,59.055,0,0,0,1.264.006C.03-.1-.305,1.222.279,2.362A4.276,4.276,0,0,0,3.62,4.6" transform="translate(-685.611 -2413.177) rotate(-42)" fill="#080909"/>
  </g>
</svg>
